# xmcd
#
# Track frame offsets: 
#        150
#        18315
#        33192
#        51540
#        69977
#        85167
#        103640
#        123215
#        140112
#        160155
#        176475
#        195050
#
# Disc length: 2797 seconds
#
# Revision: 0
# Processed by: cddbd v1.5PL3 Copyright (c) Steve Scherf et al.
# Submitted via: ExactAudioCopy v0.95a5
#
DISCID=950aeb0c
DTITLE=Train - My Private Nation
DYEAR=2003
DGENRE=Rock
TTITLE0=Calling All Angels
TTITLE1=All American Girl
TTITLE2=When I Look To The Sky
TTITLE3=Save The Day
TTITLE4=My Private Nation
TTITLE5=Get To Me
TTITLE6=Counting Airplanes
TTITLE7=Following Rita
TTITLE8=Your Every Color
TTITLE9=Lincoln avenue
TTITLE10=I'm About To Come Alive
TTITLE11=Better Off Alive
EXTD=
EXTT0=
EXTT1=
EXTT2=
EXTT3=
EXTT4=
EXTT5=
EXTT6=
EXTT7=
EXTT8=
EXTT9=
EXTT10=
EXTT11=
PLAYORDER=
